<svg viewBox="0 0 561.6 731.22" xmlns="http://www.w3.org/2000/svg"><filter id="a" color-interpolation-filters="sRGB" height="1" width="1" x="0" y="0"><feGaussianBlur result="blur" stdDeviation="31.5053 31.5053"/><feColorMatrix result="colormatrix" values="1 0 0 0 0 0 1 0 0 0 0 0 1 0 0 0 0 0 50 0"/><feComposite in="colormatrix" in2="SourceGraphic" operator="in"/></filter><mask id="b" fill="#fff"><path d="M250 0c138.071 0 250 111.929 250 250S388.071 500 250 500 0 388.071 0 250 111.929 0 250 0zm.445 128.114c-67.562 0-122.331 54.77-122.331 122.33s54.77 122.332 122.33 122.332 122.332-54.77 122.332-122.331-54.77-122.331-122.331-122.331z"/></mask><g fill="#f5f1ee"><path d="M428.18 681.22c27.59 0 36.78-14.36 36.78-32.75v-42.92h-21.45v42.92c0 9.19-4 15.32-15.33 15.32s-15.32-6.13-15.32-15.32v-42.92H391.4v42.92c0 18.39 9.2 32.75 36.78 32.75zm-127.7-23.57a37.66 37.66 0 0 0 8.44 12.36 38.65 38.65 0 0 0 12.94 8.25 46.76 46.76 0 0 0 32.85 0 38.5 38.5 0 0 0 0-71.75 46.76 46.76 0 0 0-32.85 0 38.65 38.65 0 0 0-12.94 8.25 37.6 37.6 0 0 0-8.44 12.35 40 40 0 0 0 0 30.56zm20.22-22.72a18.37 18.37 0 0 1 4.17-5.91 19.1 19.1 0 0 1 6.08-3.89 19.86 19.86 0 0 1 14.6 0 18.54 18.54 0 0 1 6.05 3.89 18.86 18.86 0 0 1 4.12 5.91 18.94 18.94 0 0 1 0 14.87 18.86 18.86 0 0 1-4.12 5.91 18.54 18.54 0 0 1-6.05 3.89 19.52 19.52 0 0 1-20.68-3.89 18.37 18.37 0 0 1-4.17-5.91 18.94 18.94 0 0 1 0-14.87zm-65.69 28.08h31.81v16.2h-67.36l34.86-57.4h-29v-16.25h64.37zm-46.48-35.92a37.63 37.63 0 0 0-8.4-12.35 38.76 38.76 0 0 0-13-8.25 46.76 46.76 0 0 0-32.85 0 38.5 38.5 0 0 0 0 71.75 46.76 46.76 0 0 0 32.85 0 38.6 38.6 0 0 0 13-8.23 37.63 37.63 0 0 0 8.45-12.35 40 40 0 0 0 0-30.55zM188.3 649.8a18.34 18.34 0 0 1-4.17 5.91 19 19 0 0 1-6.09 3.89 19.86 19.86 0 0 1-14.6 0 18.49 18.49 0 0 1-6-3.89 18.7 18.7 0 0 1-4.12-5.91 18.94 18.94 0 0 1 0-14.87 18.82 18.82 0 0 1 4.12-5.91 18.49 18.49 0 0 1 6-3.89 19.86 19.86 0 0 1 14.6 0 19 19 0 0 1 6.09 3.88 18.45 18.45 0 0 1 4.16 5.91 18.83 18.83 0 0 1 0 14.87zm-73.31-22.71a37.75 37.75 0 0 0-8.44-12.35 38.8 38.8 0 0 0-12.94-8.25 46.76 46.76 0 0 0-32.85 0 38.36 38.36 0 0 0-12.84 8.25 37.92 37.92 0 0 0-8.39 12.35 40 40 0 0 0 0 30.55 37.72 37.72 0 0 0 21.23 20.6 46.76 46.76 0 0 0 32.85 0 38.65 38.65 0 0 0 12.94-8.23 37.75 37.75 0 0 0 8.44-12.35 40 40 0 0 0 0-30.55zM94.77 649.8a18.52 18.52 0 0 1-4.17 5.91 19 19 0 0 1-6.09 3.89 19.84 19.84 0 0 1-14.59 0 18.54 18.54 0 0 1-6.05-3.89 18.86 18.86 0 0 1-4.12-5.91 18.94 18.94 0 0 1 0-14.87 19 19 0 0 1 4.12-5.92 18.54 18.54 0 0 1 6.05-3.89 19.55 19.55 0 0 1 20.68 3.89 18.63 18.63 0 0 1 4.17 5.91 18.94 18.94 0 0 1 0 14.87z"/></g><g fill-rule="evenodd" filter="url(#a)" mask="url(#b)"><path d="M250 0c138.071 0 250 111.929 250 250S388.071 500 250 500 0 388.071 0 250 111.929 0 250 0zm.445 128.114c-67.562 0-122.331 54.77-122.331 122.33s54.77 122.332 122.33 122.332 122.332-54.77 122.332-122.331-54.77-122.331-122.331-122.331z"/><path d="M.746 416.8h87.401v87.528H.747z" fill="#5400ff"/><path d="M83.985 416.8h87.402v87.528H83.985z" fill="#50f"/><path d="M167.225 416.8h87.401v87.528h-87.401z" fill="#5900fe"/><path d="M250.464 416.8h87.401v87.528h-87.4z" fill="#6006f3"/><path d="M333.703 416.8h87.402v87.528h-87.402z" fill="#7115d8"/><path d="M416.943 416.8h87.401v87.528h-87.401z" fill="#771bce"/><path d="M.746 333.44h87.401v87.528H.747z" fill="#5800fc"/><path d="M83.985 333.44h87.402v87.528H83.985z" fill="#5a00ff"/><path d="M167.225 333.44h87.401v87.528h-87.401z" fill="#5a00ff"/><path d="M250.464 333.44h87.401v87.528h-87.4z" fill="#690ee5"/><path d="M333.703 333.44h87.402v87.528h-87.402z" fill="#7d20c7"/><path d="M416.943 333.44h87.401v87.528h-87.401z" fill="#8a2cb1"/><path d="M.746 250.08h87.401v87.528H.747z" fill="#7805dc"/><path d="M83.985 250.08h87.402v87.528H83.985z" fill="#6a02ec"/><path d="M167.225 250.08h87.401v87.528h-87.401z" fill="#6205f3"/><path d="M250.464 250.08h87.401v87.528h-87.4z" fill="#8a2ab4"/><path d="M333.703 250.08h87.402v87.528h-87.402z" fill="#8e2ead"/><path d="M416.943 250.08h87.401v87.528h-87.401z" fill="#ae4c7a"/><path d="M.746 166.72h87.401v87.528H.747z" fill="#b41298"/><path d="M83.985 166.72h87.402v87.528H83.985z" fill="#ab149f"/><path d="M167.225 166.72h87.401v87.528h-87.401z" fill="#9619b3"/><path d="M250.464 166.72h87.401v87.528h-87.4z" fill="#a93d8d"/><path d="M333.703 166.72h87.402v87.528h-87.402z" fill="#c05866"/><path d="M416.943 166.72h87.401v87.528h-87.401z" fill="#e27f2b"/><path d="M.746 83.36h87.401v87.528H.747z" fill="#e01e62"/><path d="M83.985 83.36h87.402v87.528H83.985z" fill="#de2263"/><path d="M167.225 83.36h87.401v87.528h-87.401z" fill="#d22e6b"/><path d="M250.464 83.36h87.401v87.528h-87.4z" fill="#d5604e"/><path d="M333.703 83.36h87.402v87.528h-87.402z" fill="#e98427"/><path d="M416.943 83.36h87.401v87.528h-87.401z" fill="#fda802"/><path d="M.746 0h87.401v87.528H.747z" fill="#e82059"/><path d="M83.985 0h87.402v87.528H83.985z" fill="#e82756"/><path d="M167.225 0h87.401v87.528h-87.401z" fill="#e63950"/><path d="M250.464 0h87.401v87.528h-87.4z" fill="#e9603b"/><path d="M333.703 0h87.402v87.528h-87.402z" fill="#f89a12"/><path d="M416.943 0h87.401v87.528h-87.401z" fill="#ffb600"/></g></svg>